<svg width="74" height="75" viewBox="0 0 74 75" fill="none" xmlns="http://www.w3.org/2000/svg">
<rect y="0.859619" width="73.9993" height="73.9993" rx="5.96376" fill="url(#paint0_linear_1242_1273)"/>
<g clip-path="url(#clip0_1242_1273)">
<path d="M37.0866 30.0047C37.8019 30.0047 38.3813 29.425 38.3813 28.71C38.3813 27.995 37.8019 27.4153 37.0866 27.4153C31.3666 27.4153 26.7295 32.0524 26.7295 37.7728C26.7295 43.4928 31.3666 48.1299 37.0866 48.1299C42.807 48.1299 47.4441 43.4928 47.4441 37.7728C47.4441 37.0575 46.8644 36.4782 46.1494 36.4782C45.4345 36.4782 44.8547 37.0575 44.8547 37.7728C44.8547 42.0629 41.3771 45.5409 37.0866 45.5409C32.7965 45.5409 29.3185 42.0629 29.3185 37.7728C29.3185 33.4823 32.7965 30.0047 37.0866 30.0047Z" fill="white"/>
<path d="M61.7894 30.0828C61.5644 29.4035 60.8317 29.0352 60.152 29.26C59.4882 29.4796 59.1186 30.1863 59.3165 30.8568C63.1882 43.1863 56.3321 56.3198 44.0027 60.1916C31.6737 64.0633 18.5401 57.2073 14.6684 44.8779C10.7961 32.5485 17.6526 19.4149 29.9817 15.5431C34.5455 14.11 39.4389 14.11 44.0027 15.5431C44.6879 15.7496 45.4108 15.3619 45.6175 14.6767C45.8209 14.0017 45.4477 13.2884 44.7771 13.0703C31.0868 8.775 16.5062 16.3913 12.211 30.082C7.91572 43.7723 15.5323 58.3529 29.2227 62.6481C42.9135 66.9434 57.4936 59.3271 61.7889 45.6364C63.3773 40.5736 63.3774 35.1458 61.7893 30.0828H61.7894Z" fill="white"/>
<path d="M39.5528 21.1215C39.5595 20.3843 38.9933 19.7681 38.2581 19.713C37.8714 19.6801 37.4845 19.6472 37.0875 19.6472C27.077 19.6472 18.9619 27.7623 18.9619 37.7728C18.9619 47.783 27.077 55.898 37.0875 55.898C47.0977 55.898 55.2127 47.783 55.2127 37.7729C55.2127 37.3045 55.1842 36.8366 55.1267 36.3719C55.0232 35.6613 54.3633 35.1692 53.6528 35.2727C52.9422 35.3757 52.45 36.0361 52.5532 36.7467C52.5571 36.7736 52.5619 36.8001 52.5674 36.8271C52.5956 37.1407 52.6233 37.4516 52.6233 37.7721C52.6237 46.3526 45.6681 53.3082 37.0879 53.309C28.5073 53.3094 21.5516 46.3533 21.5513 37.7732C21.5509 29.193 28.5061 22.2369 37.0867 22.2366H37.0871C37.4083 22.2366 37.7195 22.2643 38.0324 22.292L38.2751 22.3123C38.9516 22.3413 39.5234 21.8162 39.552 21.1398C39.5524 21.1334 39.5524 21.1275 39.5528 21.1215Z" fill="white"/>
<path d="M44.855 23.5312V28.1739L36.1715 36.8573C35.6573 37.3541 35.6431 38.1738 36.1399 38.688C36.6368 39.2023 37.4565 39.2166 37.9707 38.7198C37.9814 38.7095 37.9921 38.6988 38.0024 38.688L46.6859 30.0047H51.3283C51.6718 30.0047 52.0009 29.8683 52.244 29.6253L60.0118 21.8571C60.5173 21.3516 60.5173 20.5319 60.0118 20.0263C59.8916 19.9061 59.7489 19.8108 59.5918 19.7457C59.4348 19.6807 59.2665 19.6472 59.0965 19.6473H55.2124V15.7632C55.2124 15.0482 54.6328 14.4685 53.9173 14.4689C53.5742 14.469 53.2452 14.6053 53.0026 14.8479L45.2344 22.6161C45.1141 22.7362 45.0187 22.8788 44.9536 23.0359C44.8885 23.1929 44.8549 23.3612 44.855 23.5312ZM47.4444 24.0674L52.623 18.8886V20.9419C52.623 21.6569 53.2028 22.2366 53.9177 22.2366H55.971L50.7923 27.4153H47.4444V24.0674Z" fill="white"/>
</g>
<defs>
<linearGradient id="paint0_linear_1242_1273" x1="36.9996" y1="74.8589" x2="36.9996" y2="0.859619" gradientUnits="userSpaceOnUse">
<stop stop-color="#0E7E01"/>
<stop offset="1" stop-color="#3FB501"/>
</linearGradient>
<clipPath id="clip0_1242_1273">
<rect width="51.9746" height="51.9746" fill="white" transform="translate(11.0127 11.8719)"/>
</clipPath>
</defs>
</svg>
