<svg width="75" height="75" viewBox="0 0 75 75" fill="none" xmlns="http://www.w3.org/2000/svg">
<rect x="0.5" y="0.859619" width="73.9993" height="73.9993" rx="5.96376" fill="url(#paint0_linear_1242_1280)"/>
<g clip-path="url(#clip0_1242_1280)">
<path d="M60.8295 29.4547L57.802 28.6978L56.1778 28.2918L54.5536 27.8857L52.9294 27.4797V25.4819C55.9209 25.0337 58.7256 23.7517 61.022 21.7828L61.7756 21.138C62.3474 20.6474 62.6746 19.9344 62.6746 19.1808C62.6746 18.4272 62.3474 17.7141 61.7748 17.2228L61.022 16.5788C58.0919 14.0678 54.353 12.684 50.4931 12.684C46.6332 12.684 42.8942 14.0678 39.9642 16.5788L39.2105 17.2236C38.6388 17.7141 38.3115 18.4272 38.3115 19.1808C38.3115 19.9344 38.6388 20.6474 39.2113 21.1388L39.9634 21.7828C41.3079 22.9331 42.8326 23.8544 44.4762 24.5098L38.0297 32.4733C37.6091 32.2781 37.1511 32.1761 36.6873 32.1744C35.9808 32.1744 35.3311 32.4067 34.7976 32.7916L31.7773 30.2757C32.332 29.3829 32.6263 28.3529 32.6268 27.3018C32.6268 24.1671 30.076 21.6171 26.9421 21.6171C23.8082 21.6171 21.2574 24.1671 21.2574 27.3018C21.2569 28.7879 21.8408 30.2146 22.8832 31.2738L18.147 37.4661C17.5991 37.1941 16.9964 37.0508 16.3847 37.0471C14.1458 37.0471 12.3242 38.8686 12.3242 41.1076C12.3242 43.3466 14.1458 45.1681 16.3847 45.1681C18.6237 45.1681 20.4453 43.3466 20.4453 41.1076C20.4453 40.09 20.0554 39.1699 19.435 38.4561L24.172 32.2613C25.2059 32.8416 26.396 33.0824 27.5742 32.9496C28.7523 32.8169 29.859 32.3173 30.7379 31.5215L33.7597 34.0399C33.551 34.4712 33.4414 34.9437 33.4389 35.4229C33.4389 37.2144 34.8958 38.6713 36.6873 38.6713C38.4788 38.6713 39.9357 37.2144 39.9357 35.4229C39.9357 34.7001 39.6905 34.039 39.2901 33.499L46.115 25.0677C46.7501 25.2456 47.399 25.382 48.0568 25.4819V30.7362C47.304 30.1223 46.3562 29.7381 45.3102 29.7381C44.948 29.7387 44.592 29.8318 44.2758 30.0084C43.9596 30.185 43.6936 30.4394 43.5032 30.7475C43.3128 31.0556 43.2041 31.4072 43.1875 31.7691C43.1709 32.1309 43.2469 32.4909 43.4083 32.8152L44.3788 34.7569C44.6605 35.3211 44.8076 35.943 44.8084 36.5736V40.211C44.8084 41.4966 45.251 42.7586 46.0533 43.7624L47.8635 46.0249L46.4326 48.1705V61.4102H39.1236V48.3572C39.4338 48.2811 39.7229 48.1361 39.9696 47.9331C40.2162 47.7302 40.414 47.4743 40.5484 47.1846C40.6829 46.8949 40.7504 46.5786 40.7462 46.2592C40.7419 45.9398 40.6658 45.6255 40.5237 45.3395L38.5893 41.4698C38.2263 40.7462 37.497 40.2955 36.6873 40.2955C35.8777 40.2955 35.1484 40.7462 34.7854 41.4706L32.851 45.3395C32.709 45.6255 32.6331 45.9398 32.6289 46.2592C32.6247 46.5785 32.6923 46.8947 32.8267 47.1844C32.9611 47.4741 33.1588 47.7299 33.4054 47.9329C33.6519 48.1359 33.9409 48.2809 34.251 48.3572V61.4102H29.3784V42.6725C29.6886 42.5963 29.9777 42.4514 30.2243 42.2484C30.4709 42.0454 30.6688 41.7896 30.8032 41.4999C30.9376 41.2101 31.0052 40.8939 31.0009 40.5745C30.9966 40.2551 30.9206 39.9408 30.7785 39.6547L28.844 35.7859C28.481 35.0615 27.7526 34.6108 26.9421 34.6108C26.1316 34.6108 25.4031 35.0615 25.0401 35.7859L23.1057 39.6547C22.9637 39.9408 22.8878 40.2551 22.8836 40.5744C22.8794 40.8938 22.947 41.21 23.0814 41.4997C23.2158 41.7894 23.4136 42.0452 23.6601 42.2482C23.9067 42.4512 24.1957 42.5962 24.5058 42.6725V61.4102H18.821V54.8541C19.1312 54.7779 19.4203 54.6329 19.667 54.43C19.9136 54.227 20.1114 53.9712 20.2458 53.6814C20.3803 53.3917 20.4478 53.0754 20.4436 52.756C20.4393 52.4367 20.3633 52.1223 20.2211 51.8363L18.2867 47.9666C17.9237 47.243 17.1944 46.7923 16.3847 46.7923C15.5751 46.7923 14.8458 47.243 14.4828 47.9674L12.5484 51.8363C12.4064 52.1223 12.3305 52.4367 12.3263 52.756C12.3221 53.0753 12.3897 53.3915 12.5241 53.6812C12.6585 53.9709 12.8562 54.2267 13.1028 54.4297C13.3493 54.6327 13.6383 54.7777 13.9484 54.8541V61.4102H12.3242V63.0344H62.6746V61.4102H61.0504V48.1705L59.6195 46.0241L61.4297 43.7615C62.234 42.7527 62.6728 41.5012 62.6746 40.211V31.8187C62.675 31.2753 62.4936 30.7473 62.1593 30.3189C61.8249 29.8905 61.3568 29.5863 60.8295 29.4547ZM16.3847 43.5439C15.0415 43.5439 13.9484 42.4508 13.9484 41.1076C13.9484 39.7644 15.0415 38.6713 16.3847 38.6713C17.728 38.6713 18.821 39.7644 18.821 41.1076C18.821 42.4508 17.728 43.5439 16.3847 43.5439ZM26.9421 31.3623C24.7031 31.3623 22.8816 29.5408 22.8816 27.3018C22.8816 25.0629 24.7031 23.2413 26.9421 23.2413C29.1811 23.2413 31.0026 25.0629 31.0026 27.3018C31.0026 29.5408 29.1811 31.3623 26.9421 31.3623ZM36.6873 37.0471C35.7916 37.0471 35.0631 36.3186 35.0631 35.4229C35.0631 34.5271 35.7916 33.7987 36.6873 33.7987C37.5831 33.7987 38.3115 34.5271 38.3115 35.4229C38.3115 36.3186 37.5831 37.0471 36.6873 37.0471ZM48.0568 20.805V22.4268C47.5533 22.0484 47.1445 21.5582 46.8627 20.9949C46.5808 20.4317 46.4336 19.8106 46.4326 19.1808C46.4326 16.9418 48.2541 15.1203 50.4931 15.1203C52.7321 15.1203 54.5536 16.9418 54.5536 19.1808C54.5527 19.8107 54.4056 20.4317 54.1237 20.995C53.8418 21.5583 53.433 22.0484 52.9294 22.4268V20.805C52.9294 19.4618 51.8363 18.3687 50.4931 18.3687C49.1499 18.3687 48.0568 19.4618 48.0568 20.805ZM60.7175 18.4564C60.822 18.5458 60.9059 18.6568 60.9635 18.7818C61.021 18.9067 61.0509 19.0426 61.0509 19.1802C61.051 19.3178 61.0213 19.4537 60.9639 19.5787C60.9065 19.7037 60.8227 19.8148 60.7183 19.9044L59.9647 20.5492C58.2556 22.0166 56.2276 23.0647 54.042 23.61C54.7066 23.0785 55.2435 22.4046 55.6132 21.6381C55.9828 20.8715 56.1758 20.0318 56.1778 19.1808C56.1776 18.3332 55.9875 17.4965 55.6216 16.732C55.2557 15.9675 54.7231 15.2947 54.0631 14.7629C56.2397 15.3109 58.2601 16.3549 59.9663 17.8132L60.7175 18.4564ZM40.2687 19.9052C40.1642 19.8157 40.0803 19.7047 40.0227 19.5798C39.9652 19.4549 39.9353 19.3189 39.9352 19.1814C39.9352 19.0438 39.9648 18.9079 40.0223 18.7829C40.0797 18.6579 40.1635 18.5468 40.2679 18.4572L41.0207 17.8124C42.7268 16.354 44.7472 15.3103 46.9239 14.7629C46.2635 15.2944 45.7307 15.9672 45.3646 16.7317C44.9985 17.4962 44.8084 18.3331 44.8084 19.1808C44.8104 20.0318 45.0034 20.8715 45.373 21.6381C45.7426 22.4046 46.2796 23.0785 46.9442 23.61C44.7582 23.0646 42.7299 22.0162 41.0207 20.5484L40.2687 19.9052ZM34.7529 46.7923C34.6674 46.7923 34.5833 46.7705 34.5086 46.7288C34.4339 46.6872 34.371 46.6272 34.326 46.5545C34.281 46.4817 34.2554 46.3987 34.2515 46.3133C34.2476 46.2278 34.2656 46.1428 34.3038 46.0663L36.2382 42.1982C36.4096 41.8539 36.9651 41.8547 37.1356 42.1974L39.07 46.0663C39.1082 46.1427 39.1262 46.2277 39.1224 46.3131C39.1185 46.3984 39.0929 46.4814 39.048 46.5541C39.0031 46.6268 38.9404 46.6869 38.8658 46.7285C38.7912 46.7702 38.7072 46.7922 38.6218 46.7923H37.4994V61.4102H35.8752V46.7923H34.7529ZM25.0077 41.1076C24.9221 41.1076 24.838 41.0857 24.7633 41.0441C24.6886 41.0025 24.6258 40.9425 24.5808 40.8697C24.5358 40.797 24.5101 40.714 24.5062 40.6285C24.5024 40.5431 24.5204 40.4581 24.5586 40.3816L26.493 36.5135C26.6643 36.17 27.2198 36.1708 27.3904 36.5135L29.3248 40.3824C29.3628 40.4588 29.3806 40.5437 29.3767 40.6289C29.3727 40.7142 29.3471 40.797 29.3022 40.8696C29.2574 40.9422 29.1947 41.0021 29.1202 41.0438C29.0457 41.0854 28.9619 41.1074 28.8765 41.1076H27.7542V61.4102H26.13V41.1076H25.0077ZM14.4503 53.2891C14.3648 53.2892 14.2807 53.2673 14.206 53.2257C14.1313 53.184 14.0684 53.124 14.0234 53.0513C13.9784 52.9785 13.9528 52.8955 13.9489 52.8101C13.945 52.7247 13.963 52.6396 14.0012 52.5631L15.9356 48.6951C16.107 48.3507 16.6625 48.3516 16.833 48.6943L18.7674 52.5631C18.8056 52.6396 18.8236 52.7245 18.8198 52.8099C18.8159 52.8953 18.7903 52.9782 18.7454 53.0509C18.7005 53.1236 18.6378 53.1837 18.5632 53.2254C18.4886 53.2671 18.4046 53.289 18.3192 53.2891H17.1968V61.4102H15.5726V53.2891H14.4503ZM48.0568 61.4102V48.6626L49.3034 46.7923H58.1796L59.4262 48.6626V61.4102H48.0568ZM61.0504 40.211C61.0504 41.1295 60.7345 42.0301 60.1604 42.7472L58.2235 45.1681H49.2595L47.3226 42.7472C46.7475 42.0269 46.4338 41.1328 46.4326 40.211V36.5736C46.4314 35.6911 46.226 34.8208 45.8324 34.0309L44.862 32.0892C44.8236 32.0127 44.8055 31.9277 44.8092 31.8422C44.813 31.7567 44.8385 31.6736 44.8834 31.6008C44.9284 31.5279 44.9911 31.4678 45.0658 31.4261C45.1405 31.3843 45.2247 31.3624 45.3102 31.3623C46.0384 31.3632 46.7365 31.6528 47.2514 32.1677C47.7663 32.6826 48.0559 33.3807 48.0568 34.1089V37.8592H49.681V20.805C49.6903 20.5959 49.78 20.3985 49.9313 20.2538C50.0825 20.1091 50.2838 20.0284 50.4931 20.0284C50.7024 20.0284 50.9036 20.1091 51.0549 20.2538C51.2062 20.3985 51.2958 20.5959 51.3052 20.805V37.8592H52.9294V29.1542L54.5536 29.5603V37.8592H56.1778V29.9663L57.802 30.3724V37.8592H59.4262V30.7784L60.4349 31.031C60.7971 31.1211 61.0504 31.4452 61.0504 31.8187V40.211Z" fill="white"/>
<path d="M26.9422 24.8655C25.599 24.8655 24.5059 25.9586 24.5059 27.3018C24.5059 28.645 25.599 29.7381 26.9422 29.7381C28.2854 29.7381 29.3785 28.645 29.3785 27.3018C29.3785 25.9586 28.2854 24.8655 26.9422 24.8655ZM26.9422 28.1139C26.7331 28.1045 26.5356 28.0149 26.391 27.8636C26.2463 27.7123 26.1656 27.5111 26.1656 27.3018C26.1656 27.0925 26.2463 26.8912 26.391 26.74C26.5356 26.5887 26.7331 26.499 26.9422 26.4897C27.1513 26.499 27.3487 26.5887 27.4934 26.74C27.638 26.8912 27.7188 27.0925 27.7188 27.3018C27.7188 27.5111 27.638 27.7123 27.4934 27.8636C27.3487 28.0149 27.1513 28.1045 26.9422 28.1139Z" fill="white"/>
</g>
<defs>
<linearGradient id="paint0_linear_1242_1280" x1="37.4996" y1="74.8589" x2="37.4996" y2="0.859619" gradientUnits="userSpaceOnUse">
<stop stop-color="#0E7E01"/>
<stop offset="1" stop-color="#3FB501"/>
</linearGradient>
<clipPath id="clip0_1242_1280">
<rect width="51.9746" height="51.9746" fill="white" transform="translate(11.5127 11.8719)"/>
</clipPath>
</defs>
</svg>
