<svg xmlns="http://www.w3.org/2000/svg" version="1.1" xmlns:xlink="http://www.w3.org/1999/xlink" width="512" height="512" x="0" y="0" viewBox="0 0 512 512" style="enable-background:new 0 0 512 512" xml:space="preserve" class=""><g><path d="M473.9 18.67C327.62 64.31 171.56 126.71 14.6 184.6c-19.59 7.24-19.44 33.74.3 39.54 45.61 13.39 91.4 27.43 137.2 41.66 2.97.92 6.19.51 8.81-1.13 73.22-45.83 147.01-92.91 218.62-137.43 3.71-2.31 7.75 2.91 4.53 5.86-58.18 53.4-118.67 108.94-178.26 163.61-3.82 3.5-4.51 9.26-1.65 13.61 38.39 58.39 76.65 117.07 112.47 174.71 9.1 14.68 30.63 11.61 37.11-5.09 56.01-145.05 114.99-288.64 157.16-424.4 6.42-20.82-16.2-43.31-36.99-36.87z" fill="#047500" opacity="1" data-original="#000000" class=""></path><path d="M145 310.97c.36 40.59 1.1 81.18 2.21 121.77.52 17.34 20.96 26.97 33.24 15.42 12.84-12.04 25.83-24.19 38.94-36.41 6.34-5.91 7.5-15.7 2.69-23.1-18.24-28.06-36.69-56.13-55.1-84.06-6.58-9.98-22.08-5.46-21.97 6.38z" fill="#047500" opacity="1" data-original="#000000" class=""></path></g></svg>