<svg xmlns="http://www.w3.org/2000/svg" version="1.1" xmlns:xlink="http://www.w3.org/1999/xlink" width="512" height="512" x="0" y="0" viewBox="0 0 64 64" style="enable-background:new 0 0 512 512" xml:space="preserve" class=""><g><path d="M43.64 46.642a1 1 0 0 0-.5 1.937c4.857 1.251 6.58 2.976 6.58 4.071C49.72 54.884 42.98 58 32 58s-17.72-3.116-17.72-5.35c0-1.09 1.723-2.81 6.581-4.072a1 1 0 1 0-.503-1.935c-5.21 1.353-8.078 3.487-8.078 6.007C12.28 57.424 22.44 60 32 60s19.72-2.576 19.72-7.35c0-2.53-2.87-4.665-8.08-6.008Z" fill="#047500" opacity="1" data-original="#000000" class=""></path><path d="M29.4 55.18a3.102 3.102 0 0 0 5.2 0c.11-.17 11.02-16.95 12.74-19.07a19.712 19.712 0 0 0-2.2-27.09 19.564 19.564 0 0 0-15.4-4.9c-8.58.96-16.53 9.03-17.36 17.63a19.666 19.666 0 0 0 4.18 14.23c2.06 2.59 12.74 19.03 12.84 19.2ZM18.68 23.72A13.32 13.32 0 1 1 32 37.04a13.328 13.328 0 0 1-13.32-13.32Z" fill="#047500" opacity="1" data-original="#000000" class=""></path><path d="m24.532 25.887.246-.189A7.256 7.256 0 0 0 31 32.266v.452a1 1 0 0 0 2 0v-.452a7.256 7.256 0 0 0 6.222-6.568l.246.189a1 1 0 0 0 1.214-1.59l-1.823-1.392a.969.969 0 0 0-.14-.074.954.954 0 0 0-.112-.06.99.99 0 0 0-.71 0 .954.954 0 0 0-.112.06.969.969 0 0 0-.14.074l-1.822 1.392a1 1 0 0 0 1.214 1.59l.146-.112A5.244 5.244 0 0 1 33 30.243v-8.467h2.91a1 1 0 0 0 0-2h-2.902a3.11 3.11 0 1 0-2.016 0H28.16a1 1 0 0 0 0 2H31v8.467a5.244 5.244 0 0 1-4.183-4.468l.146.112a1 1 0 0 0 1.214-1.59l-1.823-1.392a.969.969 0 0 0-.139-.074.954.954 0 0 0-.113-.06.99.99 0 0 0-.71 0 .954.954 0 0 0-.112.06.968.968 0 0 0-.14.074l-1.822 1.392a1 1 0 0 0 1.214 1.59Z" fill="#047500" opacity="1" data-original="#000000" class=""></path></g></svg>