<svg xmlns="http://www.w3.org/2000/svg" version="1.1" xmlns:xlink="http://www.w3.org/1999/xlink" width="512" height="512" x="0" y="0" viewBox="0 0 1707 1707" style="enable-background:new 0 0 512 512" xml:space="preserve" fill-rule="evenodd" class=""><g><path d="M1167 577H870c-14 0-26-12-26-27s12-27 26-27h297c36 0 63-27 63-63V210c0-15 12-27 27-27s27 12 27 27v250c0 64-53 117-117 117zM1217 730H870c-14 0-26-12-26-27 0-14 12-26 26-26h340l233-137c13-7 29-3 37 10 7 13 3 29-10 36l-240 140c-4 3-8 4-13 4z" fill="#047500" opacity="1" data-original="#000000" class=""></path><path d="M1257 237c-64 0-117-53-117-117 0-67 52-120 117-120 68 0 120 52 120 120 0 65-53 117-120 117zM1527 620c-68 0-120-51-120-117s53-120 120-120c64 0 116 54 116 120 1 65-52 117-116 117zM1434 880H870c-14 0-26-12-26-27 0-14 12-26 26-26h564c14 0 26 12 26 26 0 15-12 27-26 27z" fill="#047500" opacity="1" data-original="#000000" class=""></path><path d="M1527 973c-67 0-120-53-120-120 0-66 53-120 120-120 64 0 116 54 116 120 0 67-52 120-116 120zM1257 1523c-15 0-27-12-27-26v-250c0-36-27-64-63-64H870c-14 0-26-12-26-26 0-15 12-27 26-27h297c64 0 117 52 117 117v250c0 14-12 26-27 26zM1457 1170c-5 0-10-1-14-4l-233-136H870c-14 0-26-12-26-27 0-14 12-26 26-26h347c5 0 9 1 13 3l240 140c13 8 17 24 10 37-5 8-14 13-23 13z" fill="#047500" opacity="1" data-original="#000000" class=""></path><path d="M1257 1707c-65 0-117-53-117-120 0-65 53-117 117-117 67 0 120 51 120 117 0 68-52 120-120 120zM1527 1323c-67 0-120-53-120-120 0-65 52-116 120-116 64 0 116 52 116 116 1 67-52 120-116 120zM870 1673H687c-15 0-27-12-27-26v-147c-91-30-174-78-247-144l-129 77c-6 4-14 5-21 3s-12-7-16-13L67 1106c-3-6-4-13-3-20 2-7 7-13 13-16l129-73c-11-46-16-95-16-144s5-97 16-143L77 637c-6-4-11-10-13-16-2-7-1-14 3-21l180-316c4-7 9-11 16-13s15-1 21 3l129 76c73-65 156-113 247-143V60c0-15 12-27 27-27h183c15 0 27 12 27 27v414c-202 9-365 175-365 379 0 205 163 370 365 380v414c0 14-12 26-27 26zm27-1173v706h-9c-184-15-329-167-329-353 0-185 145-338 329-352z" fill="#047500" opacity="1" data-original="#000000" class=""></path></g></svg>