<svg xmlns="http://www.w3.org/2000/svg" version="1.1" xmlns:xlink="http://www.w3.org/1999/xlink" width="512" height="512" x="0" y="0" viewBox="0 0 468 468" style="enable-background:new 0 0 512 512" xml:space="preserve" class=""><g><path d="m88.133 314.204 126.38 61.007.125-129.967-126.505-69.691zM252.124 245.263l-.05 129.993 127.054-61.069V175.5zM110.154 144.586l123.177 67.806 123.596-67.806-123.597-59.33z" fill="#047500" opacity="1" data-original="#000000" class=""></path><path d="M233.595 30.129c44.929 0 88.301 14.953 123.512 41.871h-17.978v32h57.637c9.356 0 16.911-8.164 15.99-17.482l-5.759-58.109-31.979 3.096 1.746 17.603C336.099 17.548 285.761 0 233.595 0 106.157 0 .021 106.483.021 233.855c0 35.714 7.837 70.003 23.292 101.914l27.113-13.134c-13.456-27.783-20.279-57.653-20.279-88.78 0-112.335 91.266-203.726 203.448-203.726zM444.687 132.231l-27.113 13.134c13.457 27.783 20.279 57.653 20.279 88.78 0 112.335-91.267 203.726-203.448 203.726-44.929 0-88.301-14.953-123.512-41.871h18.239v-32H71.234c-9.356 0-16.91 8.132-15.989 17.45l5.759 58.076 31.979-3.03-1.745-17.603C131.901 450.452 182.239 468 234.405 468c127.438 0 233.574-106.483 233.574-233.855 0-35.713-7.837-70.002-23.292-101.914z" fill="#047500" opacity="1" data-original="#000000" class=""></path></g></svg>