<svg width="73" height="74" viewBox="0 0 73 74" fill="none" xmlns="http://www.w3.org/2000/svg">
<rect x="0.244629" y="0.0057373" width="72.6221" height="73.2873" rx="5.96376" fill="url(#paint0_linear_1527_4085)"/>
<path d="M58.7199 38.5149C58.3826 38.1776 57.9821 37.91 57.5413 37.7274C57.1006 37.5448 56.6282 37.4508 56.1511 37.4508C55.6741 37.4508 55.2017 37.5448 54.7609 37.7274C54.3202 37.91 53.9197 38.1776 53.5824 38.5149L47.3644 44.733C47.0915 44.2279 46.6876 43.8057 46.1951 43.5109C45.7026 43.216 45.1398 43.0593 44.5657 43.0573H35.4698C34.6867 42.1095 33.7142 41.3358 32.6147 40.7857C31.5151 40.2357 30.3128 39.9214 29.0847 39.8631C27.8567 39.8048 26.63 40.0038 25.4833 40.4472C24.3366 40.8906 23.2952 41.5688 22.4258 42.4382L18.9343 45.9296L17.8987 44.894C17.7485 44.7438 17.5448 44.6594 17.3324 44.6594C17.12 44.6594 16.9163 44.7438 16.7661 44.894L13.5622 48.0979C13.412 48.2481 13.3276 48.4518 13.3276 48.6642C13.3276 48.8766 13.412 49.0803 13.5622 49.2305L26.3779 62.0462C26.5281 62.1963 26.7318 62.2807 26.9441 62.2807C27.1565 62.2807 27.3602 62.1963 27.5104 62.0462L30.7144 58.8422C30.8645 58.692 30.9489 58.4883 30.9489 58.276C30.9489 58.0636 30.8645 57.8599 30.7144 57.7097L29.6787 56.674L30.5774 55.7753C31.029 55.3267 31.639 55.0741 32.2755 55.072H43.9826C45.035 55.0748 46.0774 54.8689 47.0496 54.466C48.0218 54.0632 48.9044 53.4715 49.6464 52.7252L58.7199 43.6524C59.0572 43.3151 59.3249 42.9147 59.5075 42.4739C59.69 42.0332 59.784 41.5608 59.784 41.0837C59.784 40.6066 59.69 40.1342 59.5075 39.6935C59.3249 39.2527 59.0572 38.8523 58.7199 38.5149ZM26.9441 60.3473L15.261 48.6642L17.3324 46.5928L29.0155 58.276L26.9441 60.3473ZM57.5873 42.5198L48.5146 51.5934C47.9208 52.1903 47.2145 52.6636 46.4366 52.9857C45.6587 53.3079 44.8246 53.4725 43.9826 53.4701H32.2763C31.7502 53.4686 31.2291 53.5715 30.7431 53.7728C30.2571 53.9741 29.8158 54.2698 29.4448 54.6427L28.5461 55.5414L20.0669 47.0622L23.5584 43.5707C24.2792 42.8501 25.1444 42.2901 26.0971 41.9276C27.0497 41.5652 28.0683 41.4085 29.0859 41.4678C30.1034 41.5271 31.0969 41.8011 32.001 42.2718C32.9051 42.7425 33.6994 43.3992 34.3316 44.1987L34.4549 44.3549C34.53 44.4498 34.6255 44.5265 34.7344 44.5792C34.8433 44.632 34.9627 44.6593 35.0837 44.6593H44.5657C44.9906 44.6593 45.3981 44.828 45.6985 45.1285C45.9989 45.4289 46.1677 45.8364 46.1677 46.2612C46.1677 46.6861 45.9989 47.0936 45.6985 47.394C45.3981 47.6944 44.9906 47.8632 44.5657 47.8632H33.352C33.1396 47.8632 32.9358 47.9476 32.7856 48.0978C32.6354 48.248 32.551 48.4517 32.551 48.6642C32.551 48.8766 32.6354 49.0803 32.7856 49.2306C32.9358 49.3808 33.1396 49.4652 33.352 49.4652H44.5657C45.3492 49.4625 46.1045 49.1723 46.6882 48.6497C47.2719 48.127 47.6433 47.4082 47.732 46.6297L54.715 39.6475C55.1018 39.2781 55.6162 39.0719 56.1511 39.0719C56.6861 39.0719 57.2004 39.2781 57.5873 39.6475C57.9681 40.0285 58.1821 40.545 58.1821 41.0837C58.1821 41.6223 57.9681 42.1389 57.5873 42.5198Z" fill="#F9F9F9"/>
<path d="M26.7392 27.3405C26.728 27.3565 26.7112 27.3645 26.7007 27.3813C26.6983 27.3861 26.6983 27.3909 26.6959 27.395C24.2598 30.4891 22.9364 34.3134 22.9393 38.2515C22.9393 38.3828 22.9401 38.5126 22.9489 38.6439C22.9631 38.8461 23.0534 39.0353 23.2016 39.1736C23.3498 39.3118 23.5449 39.3887 23.7475 39.3888C23.7659 39.3888 23.7852 39.388 23.8036 39.3864C24.0153 39.3717 24.2126 39.2734 24.3519 39.1133C24.4913 38.9532 24.5614 38.7444 24.5469 38.5326C24.5413 38.4381 24.5413 38.3452 24.5413 38.2515C24.542 34.8848 25.6105 31.605 27.593 28.884C29.8582 30.3634 31.1838 31.7915 31.2383 32.8568C31.1545 33.8694 30.8346 34.8481 30.3044 35.7147C30.0525 36.2239 29.8153 36.7402 29.5931 37.263C29.5496 37.3607 29.5261 37.466 29.5239 37.5728C29.5218 37.6797 29.541 37.7858 29.5805 37.8851C29.6201 37.9844 29.679 38.0748 29.754 38.1509C29.829 38.2271 29.9184 38.2874 30.0171 38.3285C30.1158 38.3695 30.2216 38.3904 30.3285 38.3899C30.4353 38.3894 30.541 38.3676 30.6393 38.3256C30.7376 38.2836 30.8265 38.2224 30.9007 38.1456C30.975 38.0688 31.0331 37.9778 31.0717 37.8782C31.288 37.3592 31.5235 36.8738 31.7469 36.4124C32.4116 35.3103 32.7869 34.058 32.8379 32.7719C32.7554 31.1564 31.3208 29.4286 28.6007 27.6312C29.8271 26.2428 31.2838 25.0763 32.9067 24.183C34.4663 27.2235 36.3438 28.8279 38.3935 28.8279C38.5425 28.828 38.6915 28.8197 38.8396 28.8031C40.2599 28.7127 41.6154 28.1765 42.7132 27.2708C43.418 26.7261 43.7104 26.5003 45.3268 27.0649C46.8374 27.5912 48.429 26.932 49.8707 25.2211C51.1192 26.1154 52.2327 27.1844 53.1772 28.3954C52.2129 29.4251 51.4542 30.6294 50.9416 31.9437C50.2584 33.4352 49.7962 34.3547 48.9472 34.434C48.3952 34.4683 47.8416 34.4658 47.29 34.4268C45.177 34.3226 42.5482 34.1993 40.6707 37.891C40.245 38.7226 39.9589 39.6186 39.824 40.5431C39.8093 40.6473 39.8153 40.7533 39.8416 40.8552C39.8679 40.9571 39.914 41.0528 39.9773 41.1368C40.0406 41.2209 40.1199 41.2917 40.2105 41.3451C40.3012 41.3985 40.4015 41.4335 40.5057 41.4482C40.5428 41.4533 40.5803 41.4557 40.6178 41.4554C40.8109 41.4553 40.9975 41.3855 41.1432 41.2588C41.2889 41.1321 41.3839 40.957 41.4108 40.7657C41.5195 40.0156 41.7523 39.2888 42.0996 38.6151C43.5061 35.8493 45.1433 35.931 47.2139 36.0271C47.84 36.071 48.4684 36.0718 49.0946 36.0295C50.9112 35.8581 51.6673 34.2073 52.3978 32.6109C52.8118 31.5633 53.3916 30.5892 54.1151 29.7258C55.1865 31.4211 55.9271 33.3041 56.2978 35.275C56.3165 35.3789 56.3556 35.4781 56.4129 35.5669C56.4701 35.6557 56.5443 35.7322 56.6312 35.7922C56.7181 35.8522 56.816 35.8944 56.9193 35.9164C57.0226 35.9383 57.1293 35.9397 57.2331 35.9203C57.3369 35.9009 57.4358 35.8612 57.5242 35.8034C57.6126 35.7457 57.6888 35.671 57.7482 35.5837C57.8076 35.4964 57.8492 35.3982 57.8705 35.2948C57.8919 35.1914 57.8926 35.0847 57.8725 34.981C57.1354 31.0838 55.104 27.5495 52.1073 24.951C49.1106 22.3526 45.3243 20.8421 41.3619 20.6643V19.7808C41.362 19.3322 41.4883 18.8927 41.7262 18.5125C41.9641 18.1322 42.3042 17.8265 42.7076 17.6302C43.1532 18.1495 43.7057 18.5664 44.3274 18.8523C44.9491 19.1382 45.6253 19.2863 46.3096 19.2866C46.9585 19.281 47.6017 19.1653 48.2119 18.9446C49.2334 18.5869 50.2021 18.0937 51.0922 17.478C51.4777 17.1321 51.9518 16.9004 52.4616 16.8089C52.9713 16.7174 53.4965 16.7696 53.9782 16.9598C54.1405 17.0017 54.312 16.9917 54.4684 16.931C54.6247 16.8704 54.7581 16.7621 54.8496 16.6216C54.9412 16.4811 54.9864 16.3154 54.9788 16.1479C54.9711 15.9803 54.9111 15.8194 54.8072 15.6878C54.6342 15.4691 50.5564 10.3613 46.6308 11.091C42.8413 11.7974 42.3976 14.0955 42.2125 16.0891C41.5555 16.3674 40.9851 16.8169 40.5609 17.3907C40.1368 16.8166 39.5664 16.3668 38.9093 16.0883C38.7243 14.0955 38.2805 11.7974 34.4911 11.0902C30.5647 10.3557 26.4869 15.4691 26.3147 15.6878C26.211 15.8194 26.1513 15.9803 26.1438 16.1476C26.1364 16.315 26.1816 16.4805 26.2731 16.6208C26.3646 16.7611 26.4979 16.8692 26.654 16.9299C26.8102 16.9906 26.9814 17.0007 27.1437 16.959C27.6254 16.7687 28.1506 16.7164 28.6603 16.808C29.17 16.8995 29.6442 17.1312 30.0296 17.4772C30.9197 18.0929 31.8885 18.5861 32.91 18.9438C33.5201 19.1648 34.1634 19.2804 34.8123 19.2858C35.4966 19.2855 36.1727 19.1373 36.7944 18.8514C37.4161 18.5655 37.9686 18.1487 38.4143 17.6294C38.8178 17.8257 39.1579 18.1316 39.3958 18.512C39.6338 18.8924 39.76 19.3321 39.7599 19.7808V20.6507C37.2361 20.7639 34.7664 21.4203 32.5194 22.5749C30.2723 23.7296 28.3007 25.3545 26.7392 27.3405ZM46.9239 12.6657C48.6789 12.3357 50.7766 13.8592 52.2056 15.224C51.4815 15.3745 50.8008 15.6866 50.2144 16.1372C49.4325 16.6811 48.5805 17.1165 47.6816 17.4315C47.1273 17.6735 46.5166 17.757 45.9176 17.6728C45.3187 17.5885 44.7548 17.3397 44.2887 16.9542L46.4057 16.0651C46.506 16.0267 46.5976 15.9686 46.675 15.8942C46.7524 15.8198 46.8141 15.7305 46.8563 15.6318C46.8985 15.5331 46.9205 15.4268 46.9208 15.3195C46.9212 15.2121 46.8999 15.1057 46.8583 15.0067C46.8168 14.9077 46.7557 14.818 46.6788 14.7431C46.6019 14.6682 46.5106 14.6095 46.4106 14.5705C46.3105 14.5315 46.2036 14.513 46.0963 14.5162C45.9889 14.5194 45.8833 14.5441 45.7857 14.5889L43.9098 15.3762C44.1325 14.0066 44.6948 13.0814 46.9239 12.6657ZM33.4402 17.4315C32.5414 17.1168 31.6894 16.6816 30.9075 16.138C30.3209 15.6864 29.6395 15.3737 28.9147 15.2232C30.3404 13.8584 32.4326 12.3365 34.1987 12.6649C36.4279 13.0806 36.9901 14.0057 37.2128 15.3754L35.3369 14.5881C35.2397 14.5459 35.135 14.5234 35.029 14.5219C34.923 14.5204 34.8178 14.54 34.7195 14.5795C34.6211 14.619 34.5315 14.6777 34.456 14.7521C34.3805 14.8264 34.3205 14.9151 34.2794 15.0128C34.2384 15.1105 34.2172 15.2155 34.217 15.3215C34.2168 15.4275 34.2377 15.5325 34.2784 15.6303C34.3191 15.7282 34.3788 15.817 34.4541 15.8917C34.5294 15.9663 34.6187 16.0252 34.717 16.0651L36.834 16.9542C36.3676 17.3393 35.8037 17.5877 35.2048 17.6718C34.6059 17.7559 33.9954 17.6725 33.441 17.4307L33.4402 17.4315ZM45.8554 25.5527C43.5886 24.7613 42.7508 25.2171 41.7328 26.0036C40.8666 26.727 39.7895 27.1504 38.6626 27.2107C36.7643 27.4278 35.2376 25.2275 34.3389 23.4902C36.6088 22.5333 39.0688 22.1127 41.5277 22.2612C43.9865 22.4097 46.378 23.1233 48.5163 24.3464C47.8218 25.1274 46.843 25.8971 45.8554 25.5527Z" fill="#F9F9F9"/>
<defs>
<linearGradient id="paint0_linear_1527_4085" x1="36.5557" y1="73.293" x2="36.5557" y2="0.0057373" gradientUnits="userSpaceOnUse">
<stop stop-color="#0E7E01"/>
<stop offset="1" stop-color="#3FB501"/>
</linearGradient>
</defs>
</svg>
