<svg width="76" height="76" viewBox="0 0 76 76" fill="none" xmlns="http://www.w3.org/2000/svg">
<rect x="0.645752" width="75.2988" height="75.2987" rx="5.96376" fill="url(#paint0_linear_1527_4074)"/>
<path d="M64.9325 49.6012L56.4172 40.9694M38.6529 52.8096C38.9785 53.1039 39.2937 53.4095 39.5978 53.726L49.6421 64.2864M20.8346 40.5709C20.4436 41.2011 19.8455 42.0151 19.3101 42.5597L11.6583 49.6012M52.5172 44.9748C52.6392 44.8566 52.7593 44.7364 52.8773 44.6142L62.6821 34.462C64.0279 33.0667 63.9883 30.8448 62.5937 29.4982C61.1983 28.1509 58.9751 28.1897 57.6276 29.5849M57.6276 29.5849C57.6276 29.5849 57.8791 29.3357 57.8796 29.3362L57.6276 29.5849ZM57.6276 29.5849C57.6279 29.5851 59.4744 27.6727 59.4744 27.6727C60.8212 26.2781 60.7826 24.0555 59.3878 22.7088C57.9929 21.3619 55.7704 21.4007 54.4234 22.7954L53.1298 24.1505M53.1298 24.1505C53.1297 24.1504 53.1297 24.1506 53.1298 24.1505ZM53.1298 24.1505C53.1295 24.1508 53.1302 24.1508 53.1298 24.1505ZM53.1298 24.1505L55.6052 21.5717C56.9521 20.177 56.9134 17.9545 55.5186 16.6078C54.1237 15.2609 51.9012 15.2997 50.5542 16.6944L48.3481 18.9795L48.3476 18.9791C48.3478 18.9793 48.3482 18.9793 48.3486 18.9791L49.3059 17.9869C50.6527 16.5922 50.614 14.3697 49.2193 13.023C47.8256 11.6772 45.5137 11.6771 44.2549 13.1096" stroke="#FEFEFE" stroke-width="1.60787" stroke-miterlimit="10" stroke-linecap="round" stroke-linejoin="round"/>
<path d="M27.7387 64.2864L37.6791 53.726C39.9702 51.3411 42.855 49.6092 46.0371 48.7084C47.2709 48.3591 48.4559 47.8561 49.5644 47.2114M22.1674 23.5954C20.8205 22.2008 18.5979 22.162 17.2032 23.5089C15.8084 24.8557 15.7695 27.078 17.1164 28.4727L22.9508 34.5137C24.2976 35.9082 26.5202 35.947 27.915 34.6002C29.3098 33.2533 29.3487 31.031 28.0017 29.6364" stroke="#FEFEFE" stroke-width="1.60787" stroke-miterlimit="10" stroke-linecap="round" stroke-linejoin="round"/>
<path d="M28.8786 20.4369L26.0368 17.4943C24.6899 16.0997 22.4673 16.0609 21.0725 17.4078C19.6778 18.7547 19.6389 20.977 20.9858 22.3716L28.0684 29.7051C29.4152 31.0997 31.6379 31.1385 33.0326 29.7916C34.4274 28.4448 34.4663 26.2225 33.1194 24.8278L31.4693 23.1192" stroke="#FEFEFE" stroke-width="1.60787" stroke-miterlimit="10" stroke-linecap="round" stroke-linejoin="round"/>
<path d="M33.1188 24.8279C34.4657 26.2225 36.6883 26.2613 38.0831 24.9144C39.4779 23.5675 39.5168 21.3452 38.1698 19.9506L37.7813 19.5483M33.8815 15.5103L32.3356 13.9096C30.9887 12.515 28.7661 12.4762 27.3713 13.8231C25.9766 15.1699 25.9377 17.3922 27.2846 18.7869M18.9628 30.3848C17.6155 28.9897 15.3922 28.951 13.9968 30.2982C12.6023 31.6448 12.5626 33.8666 13.9084 35.262L17.9631 39.4605C19.3104 40.8556 21.5338 40.8943 22.9291 39.5471C24.3244 38.1998 24.3632 35.9768 23.0159 34.5817" stroke="#FEFEFE" stroke-width="1.60787" stroke-miterlimit="10" stroke-linecap="round" stroke-linejoin="round"/>
<path d="M44.2548 13.1097L40.2493 11.22C39.8461 11.0298 39.3942 10.9682 38.9548 11.0437C38.5154 11.1191 38.1099 11.3279 37.7933 11.6417L32.6404 16.7481C32.0916 17.292 32.0818 18.176 32.6184 18.7319C34.3217 20.496 37.1487 20.4942 38.849 18.7273L44.2548 13.1097Z" stroke="#FEFEFE" stroke-width="1.60787" stroke-miterlimit="10" stroke-linecap="round" stroke-linejoin="round"/>
<defs>
<linearGradient id="paint0_linear_1527_4074" x1="38.2951" y1="75.2987" x2="38.2951" y2="0" gradientUnits="userSpaceOnUse">
<stop stop-color="#0E7E01"/>
<stop offset="1" stop-color="#3FB501"/>
</linearGradient>
</defs>
</svg>
