<svg width="74" height="75" viewBox="0 0 74 75" fill="none" xmlns="http://www.w3.org/2000/svg">
<rect x="0.138184" y="0.75293" width="73.7928" height="73.7928" rx="5.96376" fill="url(#paint0_linear_1527_4067)"/>
<path d="M18.1475 27.267C18.8289 27.2673 19.5004 27.1206 20.1058 26.8394C20.7112 26.5582 21.2327 26.1507 21.6268 25.6508C22.0208 25.151 22.2758 24.5736 22.3703 23.9669C22.4649 23.3602 22.3963 22.742 22.1703 22.1641L27.8993 18.4075C28.371 18.8025 28.9362 19.0962 29.5524 19.2662C30.1686 19.4363 30.8197 19.4783 31.4566 19.3892C32.0936 19.3001 32.6997 19.0821 33.2292 18.7517C33.7588 18.4213 34.198 17.9871 34.5137 17.4818L38.755 19.3801C38.8264 19.9024 39.0167 20.406 39.3139 20.8593C39.6112 21.3127 40.0091 21.7062 40.4829 22.0153C40.9567 22.3243 41.4962 22.5424 42.0678 22.6558C42.6395 22.7693 43.2309 22.7757 43.8054 22.6746C44.3799 22.5736 44.9251 22.3672 45.407 22.0685C45.889 21.7698 46.2973 21.385 46.6066 20.9382C46.9159 20.4914 47.1196 19.9921 47.2049 19.4714C47.2902 18.9508 47.2553 18.4199 47.1025 17.9118L51.3682 15.2032L51.2034 15.7556C51.1749 15.8489 51.1672 15.9463 51.1807 16.0422C51.1942 16.1381 51.2287 16.2307 51.2822 16.3146C51.3356 16.3986 51.407 16.4721 51.4923 16.5311C51.5775 16.5901 51.6748 16.6334 51.7787 16.6585C51.8826 16.6835 51.991 16.6898 52.0976 16.6771C52.2043 16.6643 52.307 16.6328 52.4 16.5842C52.493 16.5356 52.5744 16.4709 52.6395 16.3939C52.7046 16.3169 52.7521 16.2291 52.7794 16.1356L53.5274 13.6276C53.5309 13.6158 53.533 13.6041 53.5358 13.5923L53.5398 13.5757C53.547 13.5435 53.5517 13.5109 53.5541 13.4782V13.4616C53.555 13.436 53.5545 13.4104 53.5523 13.3848C53.5515 13.3724 53.5503 13.36 53.5487 13.3477C53.5454 13.3232 53.5407 13.2989 53.5346 13.2749C53.5328 13.2678 53.5324 13.2605 53.5304 13.2534C53.5268 13.2405 53.5207 13.2286 53.5164 13.216C53.5128 13.2061 53.5093 13.1963 53.5047 13.1865C53.4538 13.0583 53.3641 12.9453 53.2456 12.8604C53.1272 12.7754 52.9848 12.7219 52.8344 12.7057L50.0704 12.414C49.9626 12.4001 49.8529 12.4058 49.7476 12.4307C49.6423 12.4555 49.5436 12.4991 49.4574 12.5588C49.3711 12.6185 49.299 12.6931 49.2453 12.7782C49.1916 12.8634 49.1574 12.9573 49.1447 13.0545C49.132 13.1517 49.141 13.2502 49.1713 13.3442C49.2016 13.4382 49.2525 13.5258 49.3211 13.6019C49.3896 13.6779 49.4744 13.7408 49.5704 13.787C49.6664 13.8331 49.7717 13.8615 49.8801 13.8705L50.5294 13.939L46.37 16.5814C45.893 16.0206 45.253 15.5892 44.5206 15.3348C43.7881 15.0804 42.9917 15.0129 42.2193 15.1397C41.4469 15.2665 40.7284 15.5828 40.1433 16.0535C39.5582 16.5243 39.1291 17.1312 38.9034 17.8074L35.0306 16.0746C35.1127 15.485 35.0412 14.8863 34.8217 14.3258C34.6023 13.7653 34.2409 13.2584 33.7661 12.845C33.2914 12.4316 32.7162 12.1231 32.0861 11.9439C31.456 11.7646 30.7881 11.7195 30.1353 11.8121C29.4824 11.9047 28.8625 12.1325 28.3244 12.4775C27.7862 12.8224 27.3447 13.2751 27.0345 13.7999C26.7244 14.3246 26.5542 14.9069 26.5374 15.5009C26.5205 16.0949 26.6575 16.6843 26.9375 17.2226L21.338 20.8939C20.866 20.4146 20.2679 20.0492 19.5985 19.8312C18.929 19.6131 18.2094 19.5493 17.5055 19.6456C16.8015 19.7418 16.1356 19.995 15.5685 20.3821C15.0014 20.7693 14.5512 21.2779 14.2589 21.8617C13.9667 22.4455 13.8418 23.0857 13.8955 23.7241C13.9493 24.3624 14.1801 24.9785 14.5668 25.516C14.9534 26.0535 15.4837 26.4954 16.1092 26.8014C16.7347 27.1073 17.4354 27.2675 18.1475 27.2673V27.267ZM42.9861 16.5443C43.5068 16.5443 44.0158 16.6831 44.4487 16.9432C44.8817 17.2032 45.2191 17.5729 45.4184 18.0053C45.6177 18.4378 45.6698 18.9137 45.5683 19.3728C45.4667 19.832 45.216 20.2537 44.8478 20.5847C44.4796 20.9158 44.0105 21.1412 43.4999 21.2325C42.9892 21.3239 42.4599 21.277 41.9788 21.0978C41.4978 20.9187 41.0866 20.6153 40.7973 20.2261C40.508 19.8369 40.3536 19.3793 40.3536 18.9112C40.3544 18.2837 40.632 17.6821 41.1255 17.2384C41.6191 16.7947 42.2882 16.5451 42.9861 16.5443ZM30.8001 13.2342C31.3208 13.2342 31.8298 13.373 32.2628 13.6331C32.6957 13.8931 33.0332 14.2628 33.2324 14.6953C33.4317 15.1278 33.4838 15.6037 33.3823 16.0628C33.2807 16.5219 33.03 16.9437 32.6618 17.2747C32.2936 17.6057 31.8245 17.8311 31.3138 17.9224C30.8031 18.0138 30.2738 17.9669 29.7927 17.7877C29.3117 17.6086 28.9005 17.3052 28.6113 16.9159C28.322 16.5267 28.1676 16.0691 28.1676 15.601C28.1684 14.9735 28.4461 14.3719 28.9396 13.9282C29.4331 13.4845 30.1022 13.2349 30.8001 13.2342ZM18.1475 21.0664C18.6682 21.0664 19.1772 21.2052 19.6101 21.4653C20.0431 21.7253 20.3805 22.095 20.5798 22.5275C20.779 22.9599 20.8312 23.4358 20.7296 23.895C20.6281 24.3541 20.3773 24.7758 20.0092 25.1069C19.641 25.4379 19.1719 25.6633 18.6612 25.7546C18.1506 25.846 17.6212 25.7991 17.1402 25.62C16.6591 25.4408 16.248 25.1375 15.9587 24.7482C15.6694 24.359 15.515 23.9014 15.515 23.4333C15.5158 22.8058 15.7934 22.2042 16.2869 21.7605C16.7804 21.3168 17.4495 21.0672 18.1475 21.0664ZM62.5828 47.2815L58.1019 40.9664V22.3294C58.1019 22.2169 58.0731 22.1059 58.0177 22.0049C57.9623 21.904 57.8819 21.8159 57.7826 21.7474L54.4818 19.471C54.3393 19.3728 54.1648 19.3195 53.9852 19.3195C53.8057 19.3195 53.6311 19.3728 53.4887 19.471L50.1877 21.7473C50.0883 21.8158 50.0079 21.9039 49.9525 22.0048C49.8971 22.1057 49.8683 22.2168 49.8683 22.3293V35.3301L46.9825 36.9857V27.7793C46.9824 27.6667 46.9536 27.5557 46.8983 27.4548C46.8429 27.3539 46.7624 27.2658 46.6631 27.1973L43.3621 24.921C43.2196 24.8227 43.0451 24.7695 42.8655 24.7695C42.686 24.7695 42.5115 24.8227 42.369 24.921L39.068 27.1973C38.9687 27.2658 38.8882 27.3539 38.8328 27.4548C38.7775 27.5557 38.7486 27.6667 38.7486 27.7793V38.5384C38.2268 38.7321 37.7169 38.9508 37.221 39.1934C36.4889 38.3699 35.493 38.1788 34.4285 38.2442V25.3432C34.4285 25.2306 34.3997 25.1196 34.3443 25.0187C34.289 24.9178 34.2085 24.8297 34.1092 24.7612L30.8082 22.485C30.6657 22.3868 30.4912 22.3335 30.3117 22.3335C30.1321 22.3335 29.9576 22.3868 29.8152 22.485L26.5142 24.7612C26.4149 24.8297 26.3344 24.9178 26.279 25.0187C26.2236 25.1196 26.1948 25.2306 26.1948 25.3432V36.1446L23.003 34.3141C22.8736 34.2401 22.7357 34.1789 22.5917 34.1313V32.9457C22.5917 32.8332 22.5629 32.7222 22.5075 32.6212C22.4522 32.5203 22.3717 32.4322 22.2724 32.3637L18.9714 30.0874C18.8289 29.9892 18.6544 29.936 18.4749 29.936C18.2953 29.936 18.1208 29.9892 17.9784 30.0874L14.6772 32.3637C14.5779 32.4322 14.4975 32.5203 14.4421 32.6212C14.3867 32.7222 14.3579 32.8332 14.3579 32.9457V42.7227C14.358 42.775 14.3643 42.8272 14.3768 42.8783L11.4864 46.9523C11.1808 47.3846 11.0783 47.9081 11.2013 48.4083C11.3242 48.9084 11.6627 49.3443 12.1424 49.6206L16.3395 52.0278C16.6825 52.2254 17.0813 52.3305 17.4888 52.3305C17.6469 52.3304 17.8045 52.3149 17.9589 52.2841C18.2783 52.2205 18.5773 52.0921 18.833 51.9086C18.4458 52.5123 18.1999 53.1918 18.2743 53.9681C18.3675 54.9387 18.7598 55.6587 19.4409 56.108C20.0353 56.5003 20.8239 56.6598 21.7921 56.5848C21.936 57.3419 22.2756 57.9509 22.807 58.4013C23.4278 58.9275 24.2891 59.2164 25.3737 59.2632C25.5889 59.9294 25.9798 60.4415 26.5409 60.7906C27.2814 61.2516 28.2511 61.3971 29.4895 61.2306C30.0499 62.4168 31.1398 63.036 32.6837 63.0358C32.7393 63.0358 32.7957 63.035 32.8523 63.0334C33.6833 63.0099 34.492 62.4886 35.1134 61.9455C36.8364 63.0069 38.3007 63.5335 39.5449 63.5334C39.9368 63.5355 40.3264 63.4786 40.6974 63.3651C41.6266 63.077 42.3331 62.4375 42.8051 61.4596C43.8524 61.7477 44.7706 61.7198 45.5426 61.3749C46.3818 60.9998 47.0063 60.2663 47.4037 59.1899C48.4102 59.2737 49.2379 59.098 49.8718 58.666C50.4703 58.2582 50.8685 57.641 51.0606 56.8251C52.485 56.9496 53.6883 56.6187 54.6459 55.8367C54.6948 55.7967 54.7382 55.7515 54.775 55.7021C55.4882 54.745 55.7442 53.8098 55.536 52.9227C55.483 52.7007 55.4021 52.4848 55.2949 52.2792C55.5373 52.4406 55.8149 52.5543 56.1094 52.6128C56.2638 52.6436 56.4214 52.6592 56.5795 52.6593C56.987 52.6592 57.3858 52.5541 57.7288 52.3565L61.9268 49.9502C62.4065 49.674 62.7449 49.238 62.8679 48.7379C62.9909 48.2378 62.8884 47.7142 62.5828 47.2819V47.2815ZM53.985 20.9777L56.4702 22.6914V38.6669L54.0338 35.2331C53.7716 34.8648 53.3784 34.5872 52.9182 34.4457C52.458 34.3041 51.958 34.307 51.4999 34.4538V22.6911L53.985 20.9777ZM53.3361 50.3971C53.2845 50.3663 53.2335 50.3355 53.1802 50.3051C52.5944 49.9773 51.7109 49.4114 50.688 48.7562C45.2834 45.2946 41.324 42.9454 39.5934 44.258C34.2858 48.2834 32.4509 47.8152 32.2591 47.7488C32.1322 47.7047 32.0093 47.6269 31.9695 47.3578C31.8023 46.2312 33.3745 43.4517 37.389 40.7879C40.7004 39.0728 41.5305 39.4382 42.6773 39.9433C43.3334 40.2322 44.15 40.5918 45.3939 40.6529C45.8813 40.679 46.3702 40.6696 46.8559 40.6248L53.6376 50.1826C53.5531 50.2707 53.4508 50.3435 53.3361 50.3971ZM40.3802 28.1412L42.8654 26.4275L45.3507 28.1412V39.1801C44.5143 39.1185 43.9695 38.8793 43.3952 38.6263C42.459 38.2141 41.6138 37.9282 40.3802 38.1056V28.1412ZM30.3116 23.9918L32.7967 25.7054V38.4889C32.5642 38.5376 32.3331 38.589 32.1054 38.6398C30.7474 38.943 29.3515 39.2542 28.0695 38.9928C28.1803 38.7089 28.2159 38.4056 28.1737 38.1071C28.1315 37.8086 28.0126 37.523 27.8264 37.2729V25.705L30.3116 23.9918ZM15.9896 33.3075L18.4748 31.5938L20.9599 33.3075V34.1851C20.5803 34.3386 20.2589 34.5884 20.0351 34.904L15.9896 40.6054V33.3075ZM17.9314 50.6491C17.8569 50.7525 17.7402 50.8253 17.6064 50.8519C17.4726 50.8785 17.3326 50.8567 17.2166 50.7912L13.0196 48.3838C12.9047 48.3168 12.8237 48.2118 12.7941 48.0916C12.7646 47.9714 12.7888 47.8455 12.8617 47.7412L21.4106 35.6929C21.4584 35.6271 21.5238 35.5731 21.6009 35.5359C21.6779 35.4987 21.7641 35.4794 21.8515 35.4799C21.9485 35.4795 22.0435 35.5042 22.1254 35.5508L26.3224 37.9579C26.4368 38.0254 26.5173 38.1303 26.5469 38.2504C26.5764 38.3704 26.5526 38.4961 26.4805 38.6006L17.9314 50.6491ZM20.4063 54.9255C20.1211 54.7369 19.9508 54.373 19.9 53.8425C19.8061 52.861 20.6692 52.036 21.5836 51.1627C21.7676 50.9868 21.9578 50.8051 22.1369 50.624C22.3026 50.4522 22.5179 50.325 22.759 50.2564C23.0001 50.1878 23.2576 50.1805 23.503 50.2352C23.7839 50.2976 24.0434 50.4214 24.2583 50.5956C24.4732 50.7698 24.6369 50.989 24.7348 51.2338C24.4791 51.9294 23.8141 53.2176 22.09 55.0701C21.3195 55.1941 20.7401 55.1454 20.4063 54.9253V54.9255ZM23.356 55.9957C25.3248 53.8754 26.0575 52.3575 26.328 51.5686C27.0165 50.9381 28.2249 50.6547 29.0574 50.9494C29.6392 51.1558 29.9374 51.6118 29.9476 52.3049L25.6096 57.8021C24.8476 57.7923 24.2818 57.6357 23.9261 57.3341C23.5936 57.0519 23.4024 56.6022 23.356 55.9955V55.9957ZM27.4693 59.5845C27.1885 59.4098 27.0017 59.119 26.8994 58.7035L31.2328 53.212C32.1839 53.0758 32.9227 53.2087 33.2854 53.5892C33.676 54.0001 33.6877 54.7482 33.3234 55.652C32.2397 56.8344 31.3817 57.771 30.7497 58.4618C30.2127 59.0485 29.8049 59.4935 29.5925 59.7248C28.6293 59.8985 27.8981 59.851 27.4693 59.5843V59.5845ZM32.8014 61.5677C31.8117 61.5934 31.2504 61.2975 30.9458 60.5555C31.1426 60.3411 31.4673 59.9866 32.0094 59.3943C32.5931 58.7569 33.369 57.9098 34.337 56.8531C35.0045 57.0402 35.6686 57.3456 35.8102 57.8353C35.913 58.1906 35.574 59.1065 34.7434 60.1044C33.9156 61.0991 33.1093 61.5587 32.8014 61.5675V61.5677ZM53.4771 54.8092C52.7734 55.3456 51.8586 55.5036 50.6893 55.2928L42.638 50.4008L41.7244 51.6163L49.5027 56.342C49.4065 56.8957 49.1997 57.2832 48.8867 57.4966C48.5161 57.7491 47.9213 57.8064 47.1224 57.6721L40.9181 54.0325C40.8283 53.9798 40.728 53.9436 40.6227 53.9258C40.5174 53.9081 40.4092 53.9091 40.3043 53.9289C40.1995 53.9488 40.1 53.987 40.0116 54.0413C39.9232 54.0957 39.8475 54.1652 39.789 54.2459C39.7304 54.3266 39.6901 54.4168 39.6703 54.5115C39.6506 54.6062 39.6518 54.7034 39.6738 54.7977C39.6959 54.8919 39.7383 54.9814 39.7988 55.0609C39.8593 55.1404 39.9366 55.2084 40.0264 55.261L45.8701 58.689C45.6173 59.4001 45.2641 59.861 44.817 60.0608C44.3199 60.283 43.6138 60.2172 42.7191 59.8669L39.0563 57.526C38.969 57.4695 38.8702 57.4291 38.7655 57.407C38.6607 57.385 38.5522 57.3818 38.4461 57.3976C38.34 57.4134 38.2384 57.448 38.1472 57.4992C38.056 57.5504 37.9769 57.6174 37.9146 57.6962C37.8523 57.775 37.8079 57.8641 37.784 57.9584C37.7602 58.0527 37.7573 58.1503 37.7755 58.2456C37.7937 58.3409 37.8328 58.432 37.8903 58.5137C37.9479 58.5954 38.0228 58.6661 38.1109 58.7216L41.3483 60.7906C41.0611 61.4247 40.6648 61.8233 40.1662 61.9779C39.5266 62.1762 38.3263 62.116 36.1793 60.8227C36.6805 60.1878 37.7357 58.6622 37.3894 57.4654C37.1348 56.5852 36.3561 55.9347 35.0701 55.5257C35.3875 54.3561 35.2026 53.3479 34.5258 52.6359C33.865 51.9407 32.8178 51.6203 31.5221 51.7045C31.3316 50.6993 30.6808 49.9472 29.6561 49.584C28.4591 49.1596 26.9835 49.359 25.8549 50.0279C25.3842 49.4122 24.6755 48.9761 23.8668 48.8045C23.3364 48.6909 22.7816 48.7094 22.2621 48.8581C21.7425 49.0068 21.2779 49.2799 20.9181 49.6482C20.9154 49.6511 20.9124 49.6539 20.9096 49.6566C20.8387 49.5953 20.7716 49.5306 20.7084 49.4628L27.2118 40.298C29.0379 40.8342 30.9389 40.4106 32.4994 40.0622C34.3192 39.6559 35.2564 39.5162 35.8367 40.0085C32.2878 42.5172 30.0569 45.5561 30.3528 47.5511C30.4645 48.3039 30.9329 48.8598 31.6717 49.1166C33.9652 49.9135 37.818 47.5239 40.6449 45.3797C40.6505 45.3762 41.2296 45.0666 44.0537 46.5323C45.9068 47.4943 48.0335 48.8562 49.7413 49.9504C50.7865 50.6199 51.6892 51.198 52.3126 51.5469C53.2578 52.0851 53.8054 52.6499 53.9405 53.2253C54.0512 53.6979 53.899 54.2165 53.4765 54.809L53.4771 54.8092ZM61.2747 48.4204C61.2605 48.4801 61.2333 48.5367 61.1946 48.5868C61.1558 48.637 61.1064 48.6798 61.0492 48.7126L56.8523 51.1196C56.7363 51.1851 56.5962 51.2069 56.4625 51.1804C56.3287 51.1538 56.212 51.081 56.1375 50.9776L47.5884 38.9298C47.5163 38.8253 47.4925 38.6996 47.5221 38.5796C47.5516 38.4595 47.6321 38.3546 47.7464 38.2871L51.9435 35.8799C52.0256 35.8328 52.121 35.8078 52.2184 35.808C52.257 35.808 52.2955 35.8118 52.3332 35.8194C52.3996 35.8321 52.4625 35.8566 52.5183 35.8914C52.5741 35.9262 52.6217 35.9706 52.6583 36.022L61.2072 48.0704C61.2437 48.1218 61.2684 48.1792 61.28 48.2393C61.2915 48.2994 61.2898 48.3609 61.2747 48.4204ZM23.9057 38.5917L23.7672 38.7845C23.7091 38.8654 23.6338 38.9352 23.5456 38.99C23.4574 39.0447 23.3581 39.0833 23.2534 39.1035C23.1486 39.1237 23.0405 39.1252 22.9351 39.1079C22.8297 39.0905 22.7291 39.0547 22.6392 39.0024C22.5492 38.9501 22.4715 38.8824 22.4107 38.8031C22.3498 38.7238 22.3069 38.6346 22.2844 38.5404C22.2619 38.4462 22.2602 38.349 22.2795 38.2542C22.2988 38.1595 22.3387 38.0691 22.3969 37.9882L22.5354 37.7954C22.5932 37.7136 22.6683 37.643 22.7566 37.5875C22.8448 37.532 22.9444 37.4928 23.0496 37.4721C23.1548 37.4513 23.2635 37.4496 23.3695 37.4668C23.4755 37.4841 23.5766 37.52 23.6671 37.5726C23.7575 37.6251 23.8355 37.6933 23.8965 37.7731C23.9575 37.8529 24.0003 37.9427 24.0225 38.0375C24.0447 38.1322 24.0458 38.23 24.0257 38.3251C24.0057 38.4202 23.9649 38.5109 23.9057 38.5917ZM51.4485 37.9882C51.5077 38.0691 51.5485 38.1597 51.5685 38.2548C51.5886 38.35 51.5875 38.4477 51.5653 38.5425C51.5431 38.6372 51.5003 38.7271 51.4393 38.8069C51.3783 38.8866 51.3003 38.9548 51.2099 39.0074C51.1194 39.0599 51.0183 39.0959 50.9123 39.1131C50.8063 39.1304 50.6976 39.1286 50.5924 39.1079C50.4872 39.0872 50.3876 39.0479 50.2994 38.9924C50.2111 38.9369 50.1359 38.8663 50.0782 38.7845L49.9396 38.5917C49.8243 38.4284 49.7854 38.2307 49.8314 38.0416C49.8775 37.8526 50.0047 37.6876 50.1855 37.5826C50.3662 37.4775 50.5858 37.441 50.7964 37.4808C51.007 37.5207 51.1916 37.6337 51.3099 37.7954L51.4485 37.9882Z" fill="white"/>
<defs>
<linearGradient id="paint0_linear_1527_4067" x1="37.0346" y1="74.5457" x2="37.0346" y2="0.75293" gradientUnits="userSpaceOnUse">
<stop stop-color="#0E7E01"/>
<stop offset="1" stop-color="#3FB501"/>
</linearGradient>
</defs>
</svg>
