<svg width="75" height="74" viewBox="0 0 75 74" fill="none" xmlns="http://www.w3.org/2000/svg">
<rect x="0.587158" y="0.00585938" width="73.7901" height="73.287" rx="5.96376" fill="url(#paint0_linear_1527_4060)"/>
<path d="M63.1527 42.9973L56.8189 29.9033C57.5192 26.3202 57.164 16.8803 57.2452 13.1145C57.2553 12.6476 56.7986 12.2517 56.3316 12.3227L52.0786 12.9216C47.7241 13.5408 43.2275 13.0739 39.0252 11.531C38.5278 11.3889 37.5838 10.8611 37.1981 11.0641C32.6406 12.9013 27.7176 13.6321 22.8556 12.9216L18.6127 12.3227C18.1458 12.2517 17.689 12.6374 17.6991 13.1145C17.8006 16.6976 17.4555 26.1375 18.095 29.548L11.8119 42.5507C11.2942 43.5657 11.7611 44.9157 12.7965 45.3928L16.3187 47.0981C17.3439 47.6157 18.6837 47.1488 19.1608 46.1135L19.5262 45.3624L20.9371 45.9917C21.4243 46.2048 21.7492 46.6616 21.7999 47.1894L21.9217 48.4582L20.8356 50.3361C19.5871 52.3458 21.2924 55.188 23.6473 55.0053C22.9368 57.7154 26.124 59.9282 28.4078 58.3143C29.027 59.7963 30.8845 60.5677 32.3665 59.9485C32.9755 62.6079 36.7413 63.156 38.0812 60.7402L38.8628 59.3902L41.106 60.6895C42.9331 61.8162 45.5113 60.3241 45.4199 58.162C47.247 58.5681 49.1045 56.7816 48.8508 54.9342C50.5967 54.985 52.0888 53.097 51.6117 51.4019C53.4388 51.1582 54.5655 48.9759 53.7433 47.362L55.7632 46.4789C56.22 47.5548 57.5903 48.0725 58.6358 47.5345L62.158 45.8293C63.2035 45.3624 63.6704 44.0124 63.1527 42.9973ZM19.3131 14.0382L22.6424 14.5051C27.6567 15.2258 32.7522 14.5355 37.4722 12.6679C42.1921 14.5457 47.3282 15.2258 52.3019 14.5051L55.6414 14.0382C55.6008 16.3525 55.7632 25.4269 55.4993 27.5687C54.9309 27.0713 54.1189 26.9089 53.3982 27.1424C53.591 25.3457 53.4895 19.3062 53.5098 17.4081C53.52 16.9412 53.0632 16.5453 52.5963 16.6164C47.582 17.3167 42.5169 16.7788 37.7462 15.0329C37.5737 14.972 37.3808 14.972 37.1981 15.0329C32.4579 16.7585 27.3623 17.3167 22.3582 16.6062C21.8913 16.525 21.4345 16.9209 21.4446 17.3979C21.4649 19.022 21.3939 25.1529 21.5258 26.6754C20.8052 26.442 19.983 26.6348 19.4247 27.1424C19.2217 25.3863 19.3537 15.987 19.3131 14.0382ZM49.4497 33.4255C48.8102 33.7807 48.0794 34.1563 47.3384 33.933L43.1767 32.857C41.2278 32.3292 39.3297 32.9991 37.7868 34.1969C36.924 33.801 35.2695 32.8164 34.3255 32.7149C33.2496 32.4104 29.768 33.2834 28.5601 33.4255C28.2657 33.4762 27.9612 33.4356 27.6872 33.3037L25.8195 32.38L26.2356 31.5172C26.8548 30.4412 26.459 29.0405 25.3323 28.5025L23.2108 27.4773C22.9469 25.4777 23.0789 20.3923 23.0484 18.3216C27.9206 18.8698 32.8639 18.2912 37.4925 16.6367C42.1414 18.2912 47.044 18.8596 51.9365 18.3216C51.9061 20.6867 52.0583 25.6604 51.7335 27.9544L49.6628 28.9593C49.1451 29.2029 48.7594 29.6394 48.5767 30.1773C48.0997 31.1924 49.0538 32.5221 49.4497 33.4255ZM18.9476 42.8958L17.7296 45.4131C17.6078 45.6669 17.2728 45.7887 17.0191 45.6567L13.4969 43.9514C13.2431 43.8296 13.1213 43.4947 13.2533 43.2409C13.6999 42.3071 20.1352 29.0202 20.389 28.4721C20.521 28.2183 20.8458 28.0965 21.1097 28.2183L24.6319 29.9236C24.8856 30.0555 25.0074 30.3702 24.8755 30.6341C24.4289 31.5375 19.5161 41.7184 18.9476 42.8958ZM22.7743 53.2086C22.0638 52.8229 21.7999 51.8282 22.2161 51.1379C22.2161 51.1379 23.4849 48.9455 23.4849 48.9353L24.4492 47.2706C24.6623 46.9154 25.0176 46.6413 25.4236 46.55C26.662 46.215 27.7481 47.697 27.0781 48.783C26.8853 49.118 26.4894 49.7981 26.2965 50.1331L24.8349 52.6707C24.4187 53.3812 23.495 53.6248 22.7743 53.2086ZM28.5499 55.4925C28.4484 55.7056 28.1033 56.2842 27.9917 56.4974C26.936 58.2128 24.4086 56.741 25.3526 54.9748C26.2052 53.5842 27.4537 51.1684 28.3875 49.8285C29.4432 48.783 31.25 49.7778 30.9353 51.2192C30.8541 51.615 30.2958 52.3966 30.1233 52.7519C30.1233 52.762 28.5499 55.4925 28.5499 55.4925ZM32.5695 57.8068C31.6052 59.4004 29.1894 58.2331 29.839 56.4872C29.839 56.4771 31.524 53.5639 31.5342 53.5639C31.7575 53.2391 32.2041 52.224 32.5289 52.0109C33.483 51.1887 35.0361 51.9297 35.0158 53.1782C35.0361 53.6146 34.762 54.0308 34.5488 54.3861C34.1022 55.1575 33.0161 57.0353 32.5695 57.8068ZM38.9338 56.0812L36.7007 59.9485C35.9597 61.2782 33.8383 60.7199 33.8688 59.1872C33.8688 58.9132 33.9398 58.6594 34.0718 58.426C34.1124 58.3853 36.5383 54.0613 36.5383 54.2643C37.7767 53.0158 39.7966 54.5383 38.9338 56.0812ZM43.6436 58.8523C43.2884 59.4613 42.5068 59.6744 41.8977 59.3192L39.6545 58.0199C40.0199 57.3602 40.6695 56.4466 40.7 55.665C40.7507 55.6955 42.182 56.4974 42.1718 56.5177L43.1767 57.0861C43.7857 57.4515 43.9989 58.2331 43.6436 58.8523ZM52.241 49.2094C52.241 49.2195 52.241 49.2195 52.241 49.2094C51.9061 49.8082 51.0839 50.0417 50.4952 49.6763C49.1858 48.9658 44.8921 46.4078 43.5523 45.5857C42.6489 45.0578 41.8368 46.3977 42.7301 46.956C42.7402 46.9661 47.856 50.0417 47.8662 50.0417L49.4497 50.9552C50.8809 51.818 49.6425 53.9801 48.1707 53.168C47.9474 53.0868 41.5628 49.0774 41.1669 48.8338C40.2737 48.2958 39.4413 49.6154 40.3244 50.194L46.6075 54.112C48.1098 54.9748 46.7801 57.279 45.288 56.4466L42.9838 55.1169C42.9737 55.1271 40.1519 53.503 40.1417 53.503C39.3703 52.3661 37.7868 51.8992 36.5079 52.4068C36.1019 50.6913 34.153 49.6357 32.4985 50.2244C32.1635 48.6308 30.4887 47.5244 28.8849 47.8492C28.6717 44.9056 24.9364 43.8398 23.2108 46.2454C22.9266 45.4842 22.348 44.8548 21.5867 44.5199L20.2266 43.921C21.3837 41.5255 23.9416 36.2473 25.1191 33.8112C26.1544 34.2882 27.6262 35.3033 28.824 34.9988L32.9755 34.2882C33.6455 34.1766 34.3255 34.2679 34.9346 34.5725L36.2541 35.2221L30.2755 39.2315C29.6969 39.6172 29.3518 40.2465 29.3214 40.9469C29.2909 41.6473 29.5853 42.2868 30.1233 42.7232L30.8642 43.3221C31.8691 44.124 33.1988 44.3981 34.4372 44.0631L41.3699 42.165C41.8876 42.0229 42.4357 42.0939 42.9128 42.3578L51.7437 47.3417C51.7944 47.4432 51.8655 47.5244 51.9467 47.6056C52.4237 47.9913 52.5455 48.6815 52.241 49.2094ZM52.7384 46.0627L43.7045 40.9571C43.1665 40.6627 42.5677 40.4902 41.9586 40.48C41.4917 40.3176 34.6402 42.3883 34.021 42.5101C33.28 42.7131 32.468 42.5405 31.8691 42.0635L31.1281 41.4646C30.8338 41.2413 30.8541 40.7439 31.1687 40.5511C32.0214 39.9725 38.8526 35.4048 39.5022 34.9582C40.4564 34.3187 41.6541 34.1157 42.7707 34.3999L46.9324 35.4758C48.0388 35.7905 49.1654 35.4251 50.1297 34.8567L55.0527 45.0375L52.7384 46.0627ZM61.7418 44.0936C61.6911 44.2255 61.5997 44.3372 61.4678 44.3981L57.9456 46.1033C57.2756 46.3977 57.1031 45.5045 56.8696 45.0984C56.7478 44.8447 50.4748 31.8724 50.0993 31.0807C49.9673 30.827 50.0891 30.492 50.353 30.3702L53.8651 28.6649C54.0681 28.5736 54.3117 28.6142 54.4741 28.7563C54.5553 28.7664 55.2354 30.289 55.2963 30.3803L61.7215 43.6875C61.7723 43.8195 61.7824 43.9616 61.7418 44.0936Z" fill="white"/>
<defs>
<linearGradient id="paint0_linear_1527_4060" x1="37.4822" y1="73.2928" x2="37.4822" y2="0.00585938" gradientUnits="userSpaceOnUse">
<stop stop-color="#0E7E01"/>
<stop offset="1" stop-color="#3FB501"/>
</linearGradient>
</defs>
</svg>
